<svg width="44" height="33" viewBox="0 0 44 33" fill="none" xmlns="http://www.w3.org/2000/svg">
<path fill-rule="evenodd" clip-rule="evenodd" d="M28.2288 22.9388C29.4404 24.9673 30.7558 25.3844 32.3598 25.3768L39.5987 25.3427L43.3028 32.0348L36.5139 32.0272C33.4176 32.0272 32.0982 29.5361 31.8405 29.0963L28.2288 22.9351V22.9388Z" fill="#FDB813"/>
<path fill-rule="evenodd" clip-rule="evenodd" d="M0 32.0346H4.03488C6.57735 32.0346 8.75826 30.791 10.0314 28.6222L20.8129 10.2143L31.5944 28.6222C32.8637 30.791 35.0484 32.0346 37.5909 32.0346H41.6258L24.3208 2.49472C23.5669 1.20939 22.3168 0.496582 20.8129 0.496582C19.309 0.496582 18.055 1.20939 17.305 2.49472L0 32.0346Z" fill="#0071A5"/>
</svg>
