<svg width="107" height="29" viewBox="0 0 107 29" fill="none" xmlns="http://www.w3.org/2000/svg">
<path d="M48.5641 6.4C50.2707 6.4 51.7907 6.73333 53.1241 7.4C54.4841 8.06667 55.5507 9.09333 56.3241 10.48C57.0974 11.84 57.4841 13.6 57.4841 15.76V28H52.4841V16.4C52.4841 14.5067 52.0307 13.0933 51.1241 12.16C50.2441 11.2267 49.0041 10.76 47.4041 10.76C46.2307 10.76 45.1907 11 44.2841 11.48C43.3774 11.96 42.6707 12.68 42.1641 13.64C41.6841 14.5733 41.4441 15.76 41.4441 17.2V28H36.4441V6.64H41.2041V12.4L40.3641 10.64C41.1107 9.28 42.1907 8.24 43.6041 7.52C45.0441 6.77333 46.6974 6.4 48.5641 6.4ZM73.4659 28.28C71.2793 28.28 69.3326 27.8133 67.6259 26.88C65.9193 25.92 64.5726 24.6133 63.5859 22.96C62.5993 21.3067 62.1059 19.4267 62.1059 17.32C62.1059 15.1867 62.5993 13.3067 63.5859 11.68C64.5726 10.0267 65.9193 8.73333 67.6259 7.8C69.3326 6.86667 71.2793 6.4 73.4659 6.4C75.6793 6.4 77.6393 6.86667 79.3459 7.8C81.0793 8.73333 82.4259 10.0133 83.3859 11.64C84.3726 13.2667 84.8659 15.16 84.8659 17.32C84.8659 19.4267 84.3726 21.3067 83.3859 22.96C82.4259 24.6133 81.0793 25.92 79.3459 26.88C77.6393 27.8133 75.6793 28.28 73.4659 28.28ZM73.4659 24C74.6926 24 75.7859 23.7333 76.7459 23.2C77.7059 22.6667 78.4526 21.8933 78.9859 20.88C79.5459 19.8667 79.8259 18.68 79.8259 17.32C79.8259 15.9333 79.5459 14.7467 78.9859 13.76C78.4526 12.7467 77.7059 11.9733 76.7459 11.44C75.7859 10.9067 74.7059 10.64 73.5059 10.64C72.2793 10.64 71.1859 10.9067 70.2259 11.44C69.2926 11.9733 68.5459 12.7467 67.9859 13.76C67.4259 14.7467 67.1459 15.9333 67.1459 17.32C67.1459 18.68 67.4259 19.8667 67.9859 20.88C68.5459 21.8933 69.2926 22.6667 70.2259 23.2C71.1859 23.7333 72.2659 24 73.4659 24ZM96.2472 28.28C94.4605 28.28 92.7405 28.0533 91.0872 27.6C89.4605 27.12 88.1672 26.5467 87.2072 25.88L89.1272 22.08C90.0872 22.6933 91.2339 23.2 92.5672 23.6C93.9005 24 95.2339 24.2 96.5672 24.2C98.1405 24.2 99.2739 23.9867 99.9672 23.56C100.687 23.1333 101.047 22.56 101.047 21.84C101.047 21.2533 100.807 20.8133 100.327 20.52C99.8472 20.2 99.2205 19.96 98.4472 19.8C97.6739 19.64 96.8072 19.4933 95.8472 19.36C94.9139 19.2267 93.9672 19.0533 93.0072 18.84C92.0739 18.6 91.2205 18.2667 90.4472 17.84C89.6739 17.3867 89.0472 16.7867 88.5672 16.04C88.0872 15.2933 87.8472 14.3067 87.8472 13.08C87.8472 11.72 88.2339 10.5467 89.0072 9.56C89.7805 8.54667 90.8605 7.77333 92.2472 7.24C93.6605 6.68 95.3272 6.4 97.2472 6.4C98.6872 6.4 100.141 6.56 101.607 6.88C103.074 7.2 104.287 7.65333 105.247 8.24L103.327 12.04C102.314 11.4267 101.287 11.0133 100.247 10.8C99.2339 10.56 98.2205 10.44 97.2072 10.44C95.6872 10.44 94.5539 10.6667 93.8072 11.12C93.0872 11.5733 92.7272 12.1467 92.7272 12.84C92.7272 13.48 92.9672 13.96 93.4472 14.28C93.9272 14.6 94.5539 14.8533 95.3272 15.04C96.1005 15.2267 96.9539 15.3867 97.8872 15.52C98.8472 15.6267 99.7939 15.8 100.727 16.04C101.661 16.28 102.514 16.6133 103.287 17.04C104.087 17.44 104.727 18.0133 105.207 18.76C105.687 19.5067 105.927 20.48 105.927 21.68C105.927 23.0133 105.527 24.1733 104.727 25.16C103.954 26.1467 102.847 26.92 101.407 27.48C99.9672 28.0133 98.2472 28.28 96.2472 28.28Z" fill="#324461"/>
<g clip-path="url(#clip0_52_20)">
<path fill-rule="evenodd" clip-rule="evenodd" d="M0 28H3.07479C5.01242 28 6.67528 27.0542 7.64409 25.4033L15.8615 11.3945L24.079 25.4033C25.0478 27.0542 26.7107 28 28.6483 28H31.7231L18.5345 5.51954C17.9612 4.54091 17.0082 4 15.8599 4C14.7117 4 13.7587 4.54247 13.1854 5.51954L0 28Z" fill="#324461"/>
<path fill-rule="evenodd" clip-rule="evenodd" d="M21.5124 21.0776C22.4368 22.6222 23.4373 22.938 24.6603 22.9317L30.1777 22.9067L33 27.9984L27.8256 27.9937C25.4655 27.9922 24.4602 26.0974 24.2648 25.7644L21.5124 21.076V21.0776Z" fill="#0071A5"/>
<path fill-rule="evenodd" clip-rule="evenodd" d="M22.1017 22.0328C21.1773 20.4883 20.1767 20.1756 18.9538 20.1787L2.17587 20.2037L5.17443 15.1402L15.7885 15.1167C18.147 15.112 19.1539 17.013 19.3493 17.346L22.1017 22.0344V22.0328Z" fill="#0071A5"/>
</g>
<defs>
<clipPath id="clip0_52_20">
<rect width="33" height="24" fill="white" transform="translate(0 4)"/>
</clipPath>
</defs>
</svg>
