<svg width="118" height="51" viewBox="0 0 118 51" fill="none" xmlns="http://www.w3.org/2000/svg">
<g clip-path="url(#clip0_32_21)">
<path fill-rule="evenodd" clip-rule="evenodd" d="M0 32.0347H4.03488C6.57735 32.0347 8.75826 30.7911 10.0314 28.6223L20.8129 10.2144L31.5944 28.6223C32.8637 30.7911 35.0484 32.0347 37.5909 32.0347H41.6258L24.3208 2.49485C23.5669 1.20951 22.3168 0.496704 20.8129 0.496704C19.309 0.496704 18.055 1.20951 17.305 2.49485L0 32.0347Z" fill="white"/>
<path fill-rule="evenodd" clip-rule="evenodd" d="M31.1059 0.663574H26.9171L42.5105 27.1589C44.3298 30.2831 47.4377 32.0386 51.088 32.0386H64.3004L62.3695 28.7399C61.1001 26.5712 58.9154 25.3275 56.3729 25.3275H52.9265C50.2417 25.3275 49.1532 24.9181 47.7916 22.5673L36.8793 3.94705C35.6562 1.85791 33.556 0.663574 31.1097 0.663574" fill="white"/>
<path fill-rule="evenodd" clip-rule="evenodd" d="M90.4328 0.655884H86.3979C83.8555 0.655884 81.6746 1.89951 80.4014 4.06827L69.6199 22.4762L58.8385 4.06827C57.5691 1.89951 55.3844 0.655884 52.8419 0.655884H48.807L66.1082 30.1958C66.8621 31.4811 68.1121 32.1939 69.6161 32.1939C71.12 32.1939 72.374 31.4811 73.124 30.1958L90.4328 0.655884Z" fill="white"/>
<path fill-rule="evenodd" clip-rule="evenodd" d="M101.541 0C92.4483 0 85.0786 7.26459 85.0786 16.2278C85.0786 25.191 92.4483 32.4556 101.541 32.4556C110.634 32.4556 118.004 25.191 118.004 16.2278C118.004 7.26459 110.634 0 101.541 0ZM101.541 6.64657C106.907 6.64657 111.257 10.9348 111.257 16.224C111.257 21.5132 106.907 25.8014 101.541 25.8014C96.1755 25.8014 91.8252 21.5132 91.8252 16.224C91.8252 10.9348 96.1755 6.64657 101.541 6.64657Z" fill="white"/>
<path fill-rule="evenodd" clip-rule="evenodd" d="M113.6 42.4918C113.6 41.8775 113.546 41.305 113.434 40.7818C113.323 40.2548 113.142 39.796 112.884 39.4093C112.627 39.0225 112.284 38.7192 111.853 38.5031C111.423 38.287 110.888 38.177 110.257 38.177C109.626 38.177 109.092 38.2945 108.661 38.5296C108.23 38.7647 107.88 39.0756 107.611 39.4661C107.342 39.8567 107.149 40.3116 107.034 40.8387C106.918 41.3581 106.861 41.9079 106.861 42.4804C106.861 43.1174 106.915 43.7013 107.022 44.2397C107.13 44.7781 107.311 45.2368 107.565 45.6274C107.819 46.0141 108.161 46.3136 108.588 46.5298C109.015 46.7459 109.553 46.852 110.196 46.852C110.838 46.852 111.376 46.7345 111.811 46.4994C112.246 46.2644 112.6 45.9497 112.865 45.5478C113.13 45.1496 113.323 44.6871 113.434 44.1638C113.546 43.6406 113.604 43.0833 113.604 42.4994M115.154 42.4008C115.154 43.2804 115.05 44.0691 114.838 44.7743C114.627 45.4795 114.311 46.0786 113.896 46.5715C113.477 47.0644 112.954 47.4435 112.327 47.7089C111.696 47.9743 110.961 48.107 110.123 48.107C109.284 48.107 108.58 47.9857 107.976 47.7431C107.369 47.5004 106.872 47.144 106.476 46.6814C106.08 46.2189 105.788 45.6425 105.595 44.9563C105.399 44.27 105.307 43.4776 105.307 42.5866C105.307 41.6956 105.411 40.9524 105.622 40.2548C105.834 39.5571 106.149 38.9656 106.568 38.4727C106.988 37.9874 107.511 37.6083 108.142 37.3429C108.769 37.0775 109.503 36.9448 110.346 36.9448C111.188 36.9448 111.861 37.0661 112.461 37.3049C113.061 37.5438 113.565 37.8926 113.961 38.3552C114.361 38.8178 114.661 39.3865 114.857 40.0652C115.054 40.7439 115.15 41.5211 115.15 42.397L115.154 42.4008ZM101.141 34.4006C101.141 34.3248 101.184 34.2793 101.26 34.2528C101.341 34.2262 101.48 34.2148 101.672 34.2148C101.88 34.2148 102.01 34.2338 102.076 34.2793C102.137 34.321 102.168 34.412 102.168 34.5523C102.168 35.0755 102.022 35.4888 101.73 35.7883C101.441 36.0879 101.026 36.2395 100.491 36.2395C100.187 36.2395 99.9296 36.1864 99.7065 36.0879C99.4873 35.9893 99.2872 35.8755 99.0988 35.7542C98.9141 35.6329 98.7411 35.5267 98.5795 35.4281C98.418 35.3296 98.2487 35.2803 98.0641 35.2803C97.8294 35.2803 97.6641 35.3523 97.5679 35.4926C97.4717 35.6329 97.4256 35.8225 97.4256 36.0575C97.4256 36.0992 97.414 36.1296 97.3871 36.1561C97.3602 36.1827 97.3256 36.2016 97.2794 36.2168C97.2333 36.2319 97.1794 36.2395 97.1102 36.2433C97.0448 36.2433 96.9755 36.2433 96.8909 36.2433C96.6832 36.2433 96.5524 36.2206 96.4871 36.1751C96.4255 36.1334 96.3947 36.0424 96.3947 35.9059C96.3947 35.6367 96.437 35.3978 96.514 35.1855C96.5909 34.9732 96.7063 34.7987 96.8525 34.6547C97.0025 34.5144 97.1794 34.4044 97.3833 34.3324C97.591 34.2566 97.8179 34.2186 98.0679 34.2186C98.3718 34.2186 98.6295 34.2717 98.8526 34.3703C99.0718 34.4689 99.2719 34.5826 99.4565 34.7002C99.6373 34.8177 99.8065 34.9277 99.9719 35.03C100.133 35.1286 100.307 35.1817 100.495 35.1817C100.683 35.1817 100.845 35.1248 100.964 35.0111C101.076 34.8935 101.137 34.6926 101.137 34.4082L101.141 34.4006ZM99.1565 38.541H99.1488L97.2525 43.9515H101.08L99.1565 38.541ZM103.895 47.4435C103.938 47.5649 103.964 47.6634 103.968 47.7393C103.968 47.8151 103.949 47.872 103.903 47.9099C103.857 47.9478 103.78 47.9743 103.676 47.9857C103.572 47.9971 103.434 48.0047 103.257 48.0047C103.08 48.0047 102.941 48.0047 102.837 47.9933C102.734 47.9857 102.653 47.9706 102.599 47.9516C102.545 47.9326 102.507 47.9061 102.48 47.872C102.453 47.8378 102.43 47.7961 102.407 47.7469L101.464 45.1041H96.8871L95.9832 47.7127C95.9639 47.7658 95.9447 47.8075 95.9178 47.8454C95.887 47.8833 95.8485 47.9099 95.7947 47.9364C95.7409 47.963 95.6639 47.9781 95.5639 47.9895C95.4639 48.0009 95.337 48.0085 95.1793 48.0085C95.0216 48.0085 94.8792 48.0009 94.7754 47.9895C94.6715 47.9781 94.5946 47.9478 94.5562 47.9099C94.5138 47.8682 94.4908 47.8113 94.4946 47.7393C94.4946 47.6634 94.5215 47.5649 94.5677 47.4435L98.2564 37.358C98.2795 37.2936 98.3102 37.2443 98.3449 37.2064C98.3833 37.1647 98.4333 37.1343 98.5064 37.1154C98.5757 37.0926 98.668 37.0737 98.7795 37.0661C98.8911 37.0585 99.0295 37.0547 99.1988 37.0547C99.3795 37.0547 99.5296 37.0547 99.6488 37.0661C99.768 37.0737 99.8642 37.0926 99.9373 37.1154C100.014 37.1343 100.068 37.1685 100.11 37.2102C100.153 37.2519 100.183 37.305 100.203 37.3656L103.895 47.4511V47.4435ZM90.7751 48.5696C90.8982 48.8199 90.9905 49.0322 91.0405 49.1952C91.0944 49.362 91.1175 49.5175 91.1175 49.6616C91.1175 49.8739 91.0752 50.0635 90.9982 50.2303C90.9213 50.4009 90.8059 50.5412 90.6597 50.655C90.5174 50.7687 90.3443 50.8597 90.1366 50.9204C89.9328 50.981 89.7058 51.0114 89.452 51.0114C89.252 51.0114 89.0673 51 88.8904 50.9735C88.7173 50.9469 88.5635 50.9204 88.4327 50.8938C88.3019 50.8635 88.2134 50.8407 88.1711 50.818C88.125 50.7952 88.0942 50.7649 88.0711 50.7346C88.0519 50.7005 88.0365 50.6588 88.0288 50.6057C88.0211 50.5564 88.0173 50.4881 88.0173 50.4009C88.0173 50.2265 88.0365 50.1128 88.0711 50.0521C88.1096 49.9914 88.1711 49.9649 88.2557 49.9649H89.2981C89.4827 49.9649 89.6251 49.927 89.7289 49.8549C89.8289 49.7791 89.8828 49.6654 89.8828 49.5137C89.8828 49.4417 89.8635 49.3507 89.8328 49.2407C89.7982 49.1308 89.752 49.017 89.6981 48.8957L89.3097 48.0426C88.7942 47.9895 88.3019 47.8492 87.8326 47.6331C87.3634 47.4132 86.9364 47.0909 86.5518 46.6549C86.1672 46.2227 85.8671 45.6691 85.6479 44.9942C85.4286 44.3231 85.3209 43.5458 85.3209 42.6662C85.3209 41.7865 85.4402 40.9638 85.6748 40.2586C85.9094 39.5533 86.2402 38.9581 86.6672 38.469C87.0941 37.9798 87.6019 37.6083 88.1981 37.3504C88.7904 37.0926 89.4481 36.9637 90.1712 36.9637C90.4905 36.9637 90.8021 36.994 91.1021 37.0509C91.4021 37.1116 91.6829 37.1836 91.9368 37.2708C92.1906 37.358 92.4176 37.4642 92.6176 37.5817C92.8137 37.6955 92.9561 37.7941 93.0291 37.8661C93.1061 37.9419 93.1561 37.9988 93.1791 38.0367C93.2022 38.0746 93.2215 38.1201 93.233 38.1732C93.2484 38.2263 93.2599 38.2908 93.2676 38.3628C93.2753 38.4386 93.2792 38.522 93.2792 38.6244C93.2792 38.7382 93.2715 38.8329 93.2599 38.9088C93.2484 38.9884 93.2291 39.0566 93.2099 39.1097C93.1868 39.1628 93.1561 39.2007 93.1291 39.2273C93.0984 39.2538 93.0599 39.2652 93.0137 39.2652C92.9368 39.2652 92.8214 39.2121 92.683 39.1021C92.5406 38.9922 92.356 38.8746 92.1329 38.7419C91.9098 38.6092 91.6367 38.4917 91.3136 38.3817C90.9944 38.2718 90.6097 38.2187 90.1597 38.2187C89.6674 38.2187 89.225 38.3173 88.825 38.5069C88.425 38.7002 88.0827 38.9846 87.798 39.3562C87.5134 39.7315 87.2941 40.1903 87.1403 40.7287C86.9826 41.2709 86.9057 41.8851 86.9057 42.579C86.9057 43.2728 86.9826 43.8757 87.1326 44.4065C87.2826 44.9335 87.498 45.3771 87.7788 45.7335C88.0557 46.0899 88.4019 46.3554 88.8135 46.5373C89.2212 46.7193 89.6828 46.8103 90.202 46.8103C90.6174 46.8103 90.9905 46.7573 91.3213 46.6549C91.656 46.5525 91.9368 46.4312 92.1752 46.2985C92.4099 46.1658 92.6022 46.0482 92.7484 45.9421C92.8945 45.8359 93.0099 45.7828 93.0984 45.7828C93.1368 45.7828 93.1715 45.7904 93.1984 45.8094C93.2291 45.8283 93.2522 45.8587 93.2638 45.9042C93.283 45.9535 93.2945 46.0179 93.3061 46.1013C93.3138 46.1847 93.3176 46.2909 93.3176 46.4198C93.3176 46.507 93.3176 46.5866 93.3099 46.6549C93.3022 46.7193 93.2945 46.7762 93.2792 46.8293C93.2638 46.8786 93.2484 46.9241 93.2253 46.962C93.2022 46.9999 93.1599 47.0492 93.1061 47.1061C93.0484 47.1592 92.9291 47.2464 92.7484 47.3639C92.5637 47.4777 92.3445 47.5914 92.0868 47.6976C91.8291 47.8075 91.5675 47.8909 91.2983 47.9516C91.0329 48.0123 90.7828 48.0502 90.5444 48.0691L90.7751 48.581V48.5696ZM79.809 38.5448H79.8013L77.9051 43.9553H81.7322L79.809 38.5448ZM84.5478 47.4473C84.5901 47.5686 84.6171 47.6672 84.6209 47.7431C84.6209 47.8189 84.6017 47.8758 84.5555 47.9137C84.5093 47.9516 84.4324 47.9781 84.3286 47.9895C84.2247 48.0009 84.0862 48.0085 83.9093 48.0085C83.7324 48.0085 83.5939 48.0085 83.4901 47.9971C83.3862 47.9895 83.3054 47.9743 83.2516 47.9554C83.1977 47.9364 83.1593 47.9099 83.1323 47.8758C83.1054 47.8416 83.0823 47.7999 83.0593 47.7506L82.1169 45.1079H77.5397L76.6358 47.7165C76.6165 47.7696 76.5973 47.8113 76.5704 47.8492C76.5396 47.8871 76.5011 47.9137 76.4473 47.9402C76.3934 47.9668 76.3165 47.9819 76.2165 47.9933C76.1165 48.0047 75.9896 48.0123 75.8319 48.0123C75.6742 48.0123 75.5318 48.0047 75.428 47.9933C75.3241 47.9781 75.2472 47.9516 75.2087 47.9137C75.1664 47.872 75.1433 47.8151 75.1472 47.7431C75.1472 47.6672 75.1741 47.5686 75.2203 47.4473L78.9128 37.3618C78.9359 37.2974 78.9667 37.2481 79.0013 37.2102C79.0398 37.1685 79.0898 37.1381 79.1628 37.1192C79.2321 37.0964 79.3205 37.0775 79.4359 37.0699C79.5475 37.0623 79.686 37.0585 79.8552 37.0585C80.036 37.0585 80.186 37.0585 80.3052 37.0699C80.4245 37.0775 80.5206 37.0964 80.5937 37.1192C80.6706 37.1381 80.7245 37.1722 80.7668 37.214C80.8091 37.2557 80.8399 37.3087 80.8591 37.3694L84.5517 47.4549L84.5478 47.4473ZM74.1702 47.3487C74.1702 47.4587 74.1625 47.5459 74.151 47.6217C74.1394 47.6976 74.1202 47.7582 74.0971 47.8113C74.0702 47.8644 74.0394 47.8985 74.0048 47.9213C73.9663 47.944 73.924 47.9554 73.8702 47.9554H67.3698C67.2198 47.9554 67.1044 47.9099 67.0121 47.8227C66.9236 47.7355 66.8774 47.5914 66.8774 47.3942V47.0833C66.8774 47.0113 66.8774 46.943 66.889 46.8824C66.8967 46.8179 66.9197 46.7535 66.9428 46.6852C66.9736 46.6132 67.0121 46.5374 67.0621 46.4501C67.1159 46.3629 67.1736 46.2606 67.2505 46.143L72.3278 38.3059H67.3082C67.2544 38.3059 67.2044 38.2945 67.1621 38.2718C67.1236 38.2528 67.0928 38.2149 67.0659 38.1694C67.039 38.1201 67.0236 38.0595 67.0121 37.9874C67.0005 37.9116 66.9928 37.8244 66.9928 37.7258C66.9928 37.6159 67.0005 37.5211 67.0121 37.4414C67.0236 37.3618 67.0428 37.2974 67.0659 37.2481C67.0928 37.195 67.1236 37.1609 67.1621 37.1381C67.2044 37.1154 67.2505 37.104 67.3082 37.104H73.4355C73.5856 37.104 73.7086 37.1457 73.7971 37.2329C73.8856 37.3201 73.9317 37.449 73.9317 37.631V37.9533C73.9317 38.0443 73.924 38.1239 73.9125 38.1922C73.901 38.2604 73.8817 38.3325 73.851 38.4045C73.8202 38.4803 73.7856 38.5562 73.7394 38.6396C73.6894 38.7268 73.6279 38.8216 73.5471 38.9353L68.4929 46.7383H73.8702C73.9664 46.7383 74.0433 46.7876 74.0894 46.8824C74.1433 46.9772 74.1664 47.1326 74.1664 47.3525L74.1702 47.3487ZM64.5119 47.7393C64.5119 47.7848 64.5004 47.8265 64.4773 47.8568C64.4542 47.8909 64.4157 47.9175 64.358 47.9364C64.3042 47.9554 64.2273 47.9743 64.1349 47.9895C64.0388 48.0047 63.9234 48.0085 63.7811 48.0085C63.6388 48.0085 63.5272 48.0009 63.431 47.9895C63.3349 47.9743 63.258 47.9592 63.2003 47.9364C63.1426 47.9175 63.1041 47.8909 63.081 47.8568C63.0579 47.8265 63.0464 47.7848 63.0464 47.7393V37.3201C63.0464 37.2746 63.0579 37.2329 63.0849 37.2026C63.1118 37.1685 63.1541 37.1419 63.2118 37.123C63.2733 37.104 63.3464 37.085 63.4426 37.0699C63.5349 37.0547 63.6503 37.0509 63.7811 37.0509C63.9234 37.0509 64.0388 37.0547 64.1349 37.0699C64.2273 37.085 64.3042 37.1002 64.358 37.123C64.4157 37.1419 64.4542 37.1685 64.4773 37.2026C64.5004 37.2329 64.5119 37.2746 64.5119 37.3201V47.7393ZM58.3269 40.1069C58.3269 39.6822 58.2307 39.322 58.0384 39.0263C57.8461 38.7344 57.523 38.522 57.0691 38.3931C56.9268 38.3514 56.7652 38.3287 56.5883 38.3097C56.4075 38.2908 56.1767 38.2832 55.8844 38.2832H54.6497V41.942H56.0767C56.4614 41.942 56.796 41.8965 57.0768 41.8055C57.3537 41.7107 57.5922 41.5818 57.7768 41.4188C57.9653 41.2519 58.1038 41.0586 58.1922 40.8349C58.2807 40.6112 58.323 40.3685 58.323 40.1031L58.3269 40.1069ZM60.5309 47.7393C60.5309 47.7848 60.5232 47.8227 60.5039 47.8568C60.4847 47.8909 60.4501 47.9213 60.3924 47.944C60.3385 47.963 60.2578 47.9819 60.1539 47.9933C60.0539 48.0047 59.9154 48.0123 59.7462 48.0123C59.5962 48.0123 59.4769 48.0047 59.3846 47.9933C59.2923 47.9819 59.2154 47.963 59.1577 47.9402C59.1038 47.9137 59.0577 47.8796 59.0269 47.8341C58.9961 47.7924 58.9692 47.7355 58.9461 47.6672L57.9345 45.1041C57.8153 44.8122 57.6922 44.5468 57.5614 44.3041C57.4345 44.0615 57.2845 43.8529 57.1037 43.6747C56.9306 43.4965 56.7191 43.3638 56.4806 43.2615C56.2421 43.1629 55.9536 43.1174 55.6228 43.1174H54.6459V47.7431C54.6459 47.7886 54.6343 47.8265 54.6074 47.8606C54.5805 47.8947 54.542 47.9213 54.4882 47.9402C54.4343 47.9592 54.3612 47.9781 54.2689 47.9933C54.1728 48.0085 54.0574 48.0123 53.915 48.0123C53.7727 48.0123 53.6573 48.0047 53.5612 47.9933C53.4689 47.9781 53.3919 47.963 53.3381 47.9402C53.2804 47.9213 53.2419 47.8947 53.2188 47.8606C53.1958 47.8303 53.1842 47.7886 53.1842 47.7431V37.6917C53.1842 37.4756 53.2419 37.3239 53.3573 37.2329C53.4727 37.1457 53.5996 37.104 53.7304 37.104H56.069C56.346 37.104 56.5768 37.1078 56.7614 37.123C56.946 37.1381 57.1114 37.1533 57.2576 37.1685C57.6845 37.2443 58.0576 37.358 58.3884 37.5135C58.7154 37.6727 58.9884 37.8699 59.2077 38.1088C59.4308 38.3476 59.5962 38.6244 59.7077 38.9353C59.8193 39.2462 59.8731 39.5875 59.8731 39.9628C59.8731 40.3382 59.8231 40.6491 59.727 40.9372C59.627 41.2216 59.4846 41.4794 59.2962 41.6993C59.1077 41.9193 58.8846 42.1126 58.623 42.2757C58.3615 42.4349 58.073 42.5752 57.7461 42.6851C57.9307 42.7648 58.0922 42.8633 58.2384 42.9847C58.3884 43.106 58.523 43.2501 58.65 43.4169C58.7769 43.5875 58.9 43.7809 59.0115 43.997C59.1231 44.2131 59.2385 44.4596 59.35 44.7364L60.3385 47.1288C60.4155 47.3298 60.4693 47.4739 60.4885 47.5535C60.5116 47.6331 60.5232 47.6976 60.5232 47.7431L60.5309 47.7393ZM49.8609 47.7393C49.8609 47.7848 49.8494 47.8265 49.8263 47.8568C49.8032 47.8909 49.7648 47.9175 49.7071 47.9364C49.6532 47.9554 49.5763 47.9743 49.484 47.9895C49.3878 48.0047 49.2724 48.0085 49.1301 48.0085C48.9878 48.0085 48.8763 48.0009 48.7801 47.9895C48.6839 47.9743 48.607 47.9592 48.5493 47.9364C48.4916 47.9175 48.4531 47.8909 48.4301 47.8568C48.407 47.8265 48.3955 47.7848 48.3955 47.7393V37.3201C48.3955 37.2746 48.407 37.2329 48.4339 37.2026C48.4608 37.1685 48.5032 37.1419 48.5608 37.123C48.6224 37.104 48.6955 37.085 48.7916 37.0699C48.8839 37.0547 48.9993 37.0509 49.1301 37.0509C49.2724 37.0509 49.3878 37.0547 49.484 37.0699C49.5763 37.085 49.6532 37.1002 49.7071 37.123C49.7648 37.1419 49.8032 37.1685 49.8263 37.2026C49.8494 37.2329 49.8609 37.2746 49.8609 37.3201V47.7393ZM45.6222 47.3601C45.6222 47.4625 45.6183 47.5535 45.603 47.6255C45.5914 47.7014 45.5722 47.762 45.5453 47.8151C45.5145 47.8682 45.4837 47.9023 45.4453 47.9251C45.4068 47.9478 45.3683 47.9592 45.3222 47.9592H40.0334C39.9026 47.9592 39.7795 47.9175 39.6603 47.8303C39.5449 47.7431 39.4872 47.5914 39.4872 47.3715V37.6917C39.4872 37.4756 39.5449 37.3239 39.6603 37.2329C39.7757 37.1457 39.9026 37.104 40.0334 37.104H45.2606C45.3068 37.104 45.3491 37.1154 45.3837 37.1381C45.4222 37.1609 45.4491 37.195 45.4722 37.2481C45.4914 37.3012 45.5145 37.3618 45.526 37.4377C45.5414 37.5135 45.5453 37.6083 45.5453 37.7182C45.5453 37.8206 45.5376 37.9078 45.526 37.9836C45.5107 38.0595 45.4914 38.1201 45.4722 38.1694C45.4491 38.2149 45.4183 38.249 45.3837 38.2718C45.3453 38.2945 45.3068 38.3059 45.2606 38.3059H40.9527V41.7069H44.6529C44.6991 41.7069 44.7414 41.7183 44.776 41.7448C44.8106 41.7714 44.8414 41.8055 44.8683 41.851C44.8952 41.8965 44.9106 41.9572 44.9221 42.033C44.9337 42.1126 44.9414 42.2036 44.9414 42.3098C44.9414 42.4159 44.9375 42.4994 44.9221 42.5714C44.9106 42.6472 44.8914 42.7041 44.8683 42.7496C44.8414 42.7951 44.8106 42.8254 44.776 42.8482C44.7375 42.8671 44.6991 42.8785 44.6529 42.8785H40.9527V46.7611H45.3222C45.3683 46.7611 45.4106 46.7724 45.4453 46.7952C45.4837 46.8179 45.5145 46.852 45.5453 46.8975C45.5722 46.9468 45.5914 47.0075 45.603 47.0833C45.6145 47.1592 45.6222 47.254 45.6222 47.3639V47.3601ZM37.1524 46.4312C37.1524 46.5184 37.1524 46.598 37.1447 46.6663C37.137 46.7307 37.1293 46.7876 37.1139 46.8407C37.0986 46.89 37.0832 46.9355 37.0601 46.9734C37.037 47.0113 36.9947 47.0606 36.9409 47.1137C36.8832 47.1705 36.7639 47.2577 36.5831 47.3715C36.3985 47.4852 36.1754 47.599 35.9023 47.7051C35.6331 47.8151 35.3254 47.9061 34.9753 47.9781C34.6253 48.054 34.2445 48.0919 33.8291 48.0919C33.1137 48.0919 32.4675 47.9743 31.8905 47.7393C31.3174 47.5042 30.8212 47.1592 30.4174 46.6966C30.0096 46.2378 29.6981 45.6729 29.4788 44.998C29.2596 44.3231 29.1519 43.5458 29.1519 42.67C29.1519 41.7941 29.2711 40.9676 29.5058 40.2586C29.7404 39.5533 30.0712 38.9581 30.4981 38.4652C30.9251 37.9723 31.4328 37.6045 32.029 37.3467C32.6213 37.0888 33.2791 36.9599 34.0022 36.9599C34.3215 36.9599 34.633 36.9903 34.933 37.0471C35.2331 37.1078 35.5138 37.1798 35.7677 37.267C36.0216 37.3542 36.2485 37.4604 36.4485 37.5779C36.6447 37.6917 36.787 37.7903 36.8601 37.8623C36.937 37.9381 36.987 37.995 37.0101 38.0329C37.0332 38.0708 37.0524 38.1163 37.0639 38.1694C37.0793 38.2225 37.0909 38.287 37.0986 38.359C37.1063 38.4348 37.1101 38.5182 37.1101 38.6206C37.1101 38.7344 37.1024 38.8291 37.0909 38.905C37.0793 38.9846 37.0601 39.0528 37.037 39.1059C37.0178 39.159 36.987 39.1969 36.9562 39.2235C36.9255 39.25 36.887 39.2614 36.8447 39.2614C36.7639 39.2614 36.6524 39.2083 36.5062 39.0983C36.3639 38.9884 36.1793 38.8709 35.9562 38.7382C35.7292 38.6054 35.4561 38.4879 35.133 38.378C34.8061 38.268 34.4215 38.2149 33.9714 38.2149C33.4791 38.2149 33.0291 38.3135 32.629 38.5031C32.2252 38.6964 31.879 38.9808 31.5944 39.3562C31.3097 39.7315 31.0866 40.1903 30.9289 40.7287C30.7712 41.2709 30.6943 41.8889 30.6943 42.579C30.6943 43.269 30.7712 43.8795 30.9212 44.4065C31.0712 44.9373 31.2905 45.3809 31.5713 45.7335C31.8521 46.0899 32.2021 46.3591 32.6098 46.5411C33.0214 46.7231 33.4868 46.8141 34.0061 46.8141C34.4445 46.8141 34.8292 46.7611 35.16 46.6549C35.4869 46.5487 35.7677 46.4312 35.9946 46.2985C36.2254 46.1658 36.4139 46.0482 36.5639 45.9421C36.7139 45.8359 36.8293 45.7828 36.9139 45.7828C36.9562 45.7828 36.9909 45.7904 37.0178 45.8094C37.0486 45.8283 37.0678 45.8587 37.0832 45.9042C37.1024 45.9535 37.1139 46.0179 37.1255 46.1013C37.1332 46.1847 37.137 46.2909 37.137 46.4198L37.1524 46.4312ZM25.7555 40.1107C25.7555 39.686 25.6594 39.3258 25.467 39.0301C25.2747 38.7382 24.9516 38.5258 24.4977 38.3969C24.3554 38.3552 24.1939 38.3325 24.0169 38.3135C23.8362 38.2945 23.6054 38.287 23.313 38.287H22.0784V41.9458H23.5054C23.89 41.9458 24.2246 41.9003 24.5054 41.8093C24.7824 41.7145 25.0209 41.5856 25.2055 41.4226C25.394 41.2557 25.5324 41.0624 25.6209 40.8387C25.7094 40.615 25.7517 40.3723 25.7517 40.1069L25.7555 40.1107ZM27.9595 47.7431C27.9595 47.7886 27.9518 47.8265 27.9326 47.8606C27.9133 47.8947 27.8787 47.9251 27.821 47.9478C27.7672 47.9668 27.6864 47.9857 27.5826 47.9971C27.4825 48.0085 27.3441 48.016 27.1748 48.016C27.0287 48.016 26.9056 48.0085 26.8133 47.9971C26.721 47.9857 26.644 47.9668 26.5863 47.944C26.5325 47.9175 26.4863 47.8833 26.4556 47.8378C26.4248 47.7961 26.3979 47.7393 26.3748 47.671L25.3632 45.1079C25.2439 44.816 25.1209 44.5506 24.9901 44.3079C24.8631 44.0653 24.7131 43.8567 24.5324 43.6785C24.3593 43.5003 24.1477 43.3676 23.9092 43.2653C23.6708 43.1667 23.3823 43.1212 23.0515 43.1212H22.0745V47.7469C22.0745 47.7923 22.063 47.8303 22.036 47.8644C22.0091 47.8985 21.9707 47.9251 21.9168 47.944C21.863 47.963 21.7899 47.9819 21.6976 47.9971C21.6014 48.0123 21.486 48.016 21.3437 48.016C21.2014 48.016 21.086 48.0085 20.9898 47.9971C20.8975 47.9819 20.8206 47.9668 20.7667 47.944C20.709 47.9251 20.6706 47.8985 20.6475 47.8644C20.6244 47.8341 20.6129 47.7923 20.6129 47.7469V37.6955C20.6129 37.4794 20.6706 37.3277 20.786 37.2367C20.9014 37.1495 21.0283 37.1078 21.1591 37.1078H23.4977C23.7746 37.1078 24.0054 37.1116 24.19 37.1267C24.3747 37.1419 24.5401 37.1571 24.6862 37.1722C25.1132 37.2481 25.4863 37.3618 25.8171 37.5173C26.144 37.6765 26.4171 37.8737 26.6363 38.1125C26.8594 38.3514 27.0248 38.6282 27.1364 38.9391C27.2479 39.25 27.3018 39.5912 27.3018 39.9666C27.3018 40.342 27.2518 40.6529 27.1518 40.941C27.0518 41.2254 26.9094 41.4832 26.721 41.7031C26.5325 41.923 26.3094 42.1164 26.0478 42.2795C25.7863 42.4387 25.4978 42.579 25.1709 42.6889C25.3555 42.7686 25.517 42.8671 25.6632 42.9885C25.8132 43.1098 25.9478 43.2539 26.0748 43.4207C26.2017 43.5913 26.3248 43.7847 26.4363 44.0008C26.5479 44.2169 26.6633 44.4634 26.7748 44.7402L27.7633 47.1326C27.8403 47.3336 27.8941 47.4777 27.9133 47.5573C27.9364 47.6369 27.948 47.7014 27.948 47.7469L27.9595 47.7431ZM17.8396 47.3639C17.8396 47.4663 17.8319 47.5573 17.8204 47.6293C17.8088 47.7051 17.7896 47.7658 17.7627 47.8189C17.7319 47.872 17.7011 47.9061 17.6627 47.9288C17.6242 47.9516 17.5858 47.963 17.5396 47.963H12.2508C12.12 47.963 11.9969 47.9213 11.8777 47.8341C11.7623 47.7469 11.7046 47.5952 11.7046 47.3753V37.6955C11.7046 37.4794 11.7623 37.3277 11.8777 37.2367C11.9931 37.1495 12.12 37.1078 12.2508 37.1078H17.4781C17.5242 37.1078 17.5665 37.1192 17.6011 37.1419C17.6396 37.1647 17.6665 37.1988 17.6896 37.2519C17.7088 37.3049 17.7319 37.3656 17.7435 37.4414C17.7588 37.5173 17.7627 37.6121 17.7627 37.722C17.7627 37.8244 17.755 37.9116 17.7435 37.9874C17.7281 38.0633 17.7088 38.1239 17.6896 38.1732C17.6665 38.2187 17.6358 38.2528 17.6011 38.2756C17.5627 38.2983 17.5242 38.3097 17.4781 38.3097H13.1701V41.7107H16.8703C16.9165 41.7107 16.9588 41.7221 16.9934 41.7486C17.028 41.7752 17.0588 41.8093 17.0857 41.8548C17.1126 41.9003 17.128 41.961 17.1396 42.0368C17.1511 42.1164 17.1588 42.2074 17.1588 42.3136C17.1588 42.4197 17.155 42.5032 17.1396 42.5752C17.128 42.651 17.1088 42.7079 17.0857 42.7534C17.0588 42.7989 17.028 42.8292 16.9934 42.852C16.9549 42.8709 16.9165 42.8823 16.8703 42.8823H13.1701V46.7648H17.5396C17.5858 46.7648 17.6281 46.7762 17.6627 46.799C17.7011 46.8217 17.7319 46.8558 17.7627 46.9013C17.7896 46.9506 17.8088 47.0113 17.8204 47.0871C17.8319 47.163 17.8396 47.2577 17.8396 47.3677V47.3639ZM9.54292 37.7258C9.54292 37.832 9.53522 37.923 9.52369 37.9988C9.51215 38.0746 9.49291 38.1391 9.46984 38.1884C9.44291 38.2339 9.41599 38.2718 9.37752 38.2907C9.33906 38.3135 9.30059 38.3249 9.25444 38.3249H6.16193V47.7431C6.16193 47.7886 6.15039 47.8265 6.12731 47.8606C6.10423 47.8947 6.06577 47.9213 6.00807 47.9402C5.95422 47.9592 5.87729 47.9781 5.78498 47.9933C5.68882 48.0085 5.57343 48.0123 5.43111 48.0123C5.28879 48.0123 5.17725 48.0047 5.08109 47.9933C4.98493 47.9781 4.908 47.963 4.8503 47.9402C4.79261 47.9213 4.75414 47.8947 4.73107 47.8606C4.70799 47.8265 4.69645 47.7886 4.69645 47.7431V38.3249H1.60778C1.56547 38.3249 1.52316 38.3135 1.4847 38.2907C1.44624 38.2718 1.41931 38.2339 1.39623 38.1884C1.377 38.1391 1.35392 38.0784 1.34238 37.9988C1.327 37.923 1.32315 37.8282 1.32315 37.7258C1.32315 37.6234 1.33084 37.5249 1.34238 37.4452C1.35777 37.3656 1.377 37.2974 1.39623 37.2519C1.41931 37.1988 1.45008 37.1647 1.4847 37.1419C1.52316 37.1192 1.56163 37.1078 1.60778 37.1078H9.25444C9.29675 37.1078 9.33906 37.1192 9.37752 37.1419C9.41599 37.1609 9.44291 37.1988 9.46984 37.2519C9.49676 37.3012 9.51215 37.3656 9.52369 37.4452C9.53522 37.5249 9.54292 37.6196 9.54292 37.7258Z" fill="white"/>
<path fill-rule="evenodd" clip-rule="evenodd" d="M28.2288 22.9388C29.4404 24.9673 30.7558 25.3844 32.3598 25.3768L39.5987 25.3427L43.3028 32.0348L36.5139 32.0272C33.4176 32.0272 32.0982 29.5361 31.8405 29.0963L28.2288 22.9351V22.9388Z" fill="#FDB813"/>
<path fill-rule="evenodd" clip-rule="evenodd" d="M29.0019 24.1938C27.7903 22.1653 26.4748 21.7558 24.8709 21.7558L2.85403 21.79L6.78891 15.1358L20.7167 15.1055C23.8131 15.0979 25.1324 17.5965 25.3901 18.0363L29.0019 24.1976V24.1938Z" fill="#FDB813"/>
</g>
<defs>
<clipPath id="clip0_32_21">
<rect width="118" height="51" fill="white"/>
</clipPath>
</defs>
</svg>
